<svg width="688" height="236" viewBox="0 0 688 236" fill="none" xmlns="http://www.w3.org/2000/svg">
<rect width="145" height="145" rx="72.5" transform="matrix(-1 0 0 1 145 58)" fill="#FF7C3A"/>
<path d="M231.957 65C235.261 65 237.14 68.779 235.146 71.4138L135.19 203.499C132.875 206.558 128 204.921 128 201.086L128 69C128 66.7909 129.791 65 132 65L231.957 65Z" fill="#FF723B"/>
<path d="M330.35 84.45C331.65 84.45 332.55 84.7 333.05 85.2C333.55 85.7 333.8 86.35 333.8 87.15C333.8 87.55 333.75 88 333.65 88.5L321.8 141.6C321.5 142.9 321.1 143.8 320.6 144.3C320.2 144.7 319.65 144.9 318.95 144.9C318.65 144.9 318.3 144.85 317.9 144.75L305.45 143.25C304.15 143.05 303.35 142.75 303.05 142.35C302.85 141.95 302.75 141.45 302.75 140.85C302.75 140.35 302.8 139.8 302.9 139.2L305.9 125.25H273.95C271.65 125.25 270.5 124.1 270.5 121.8V113.1C270.5 110.8 271.65 109.65 273.95 109.65H309.35L311.6 99.6L273.95 98.55C271.65 98.55 270.5 97.4 270.5 95.1V86.4C270.5 84.1 271.65 82.95 273.95 82.95L330.35 84.45ZM372.8 137.4C372.8 139.7 371.65 140.85 369.35 140.85H357.05C354.75 140.85 353.6 139.7 353.6 137.4V119.85H336.5C334.2 119.85 333.05 118.7 333.05 116.4V107.7C333.05 105.4 334.2 104.25 336.5 104.25H353.6V87.75C353.6 85.45 354.75 84.3 357.05 84.3H369.35C371.65 84.3 372.8 85.45 372.8 87.75V137.4ZM306.5 195.3C304.3 195.3 303.15 194.15 303.05 191.85L301.25 154.35C301.25 154.25 301.25 154.15 301.25 154.05C301.25 151.95 302.4 150.9 304.7 150.9H362.3C364.6 150.9 365.75 151.95 365.75 154.05C365.75 154.15 365.75 154.25 365.75 154.35L363.95 190.35C363.85 192.65 362.7 193.8 360.5 193.8L306.5 195.3ZM345.5 179.4L346.1 165.3H320.9L321.5 180.15L345.5 179.4ZM482.3 137.4C482.3 139.7 481.15 140.85 478.85 140.85H466.55C464.25 140.85 463.1 139.7 463.1 137.4V122.85H450.5C448.2 122.85 447.05 121.7 447.05 119.4V110.7C447.05 108.4 448.2 107.25 450.5 107.25H463.1V87.75C463.1 85.45 464.25 84.3 466.55 84.3H478.85C481.15 84.3 482.3 85.45 482.3 87.75V137.4ZM450.05 133.95C450.55 134.95 450.8 135.75 450.8 136.35C450.8 136.65 450.7 137 450.5 137.4C450.3 137.8 449.6 138.25 448.4 138.75L437.9 142.8C437 143.1 436.25 143.25 435.65 143.25C435.35 143.25 435 143.2 434.6 143.1C434.2 142.9 433.7 142.1 433.1 140.7L415.25 101.25L397.4 140.7C396.8 142.1 396.3 142.9 395.9 143.1C395.5 143.2 395.15 143.25 394.85 143.25C394.25 143.25 393.5 143.1 392.6 142.8L382.1 138.75C380.9 138.25 380.2 137.8 380 137.4C379.8 137 379.7 136.65 379.7 136.35C379.7 135.75 379.95 134.95 380.45 133.95L396.35 100.35L384.35 100.05C382.05 100.05 380.9 98.9 380.9 96.6V87.9C380.9 85.6 382.05 84.45 384.35 84.45L446.15 86.1C448.45 86.1 449.6 87.25 449.6 89.55V98.25C449.6 100.55 448.45 101.7 446.15 101.7L434.45 101.4L450.05 133.95ZM421.25 173.1C421.25 169.4 422 166.05 423.5 163.05C425 159.95 427 157.3 429.5 155.1C432.1 152.8 435.1 151.05 438.5 149.85C441.9 148.55 445.55 147.9 449.45 147.9C453.35 147.9 457 148.55 460.4 149.85C463.8 151.05 466.75 152.8 469.25 155.1C471.85 157.3 473.9 159.95 475.4 163.05C476.9 166.05 477.65 169.4 477.65 173.1C477.65 176.8 476.9 180.15 475.4 183.15C473.9 186.25 471.85 188.9 469.25 191.1C466.75 193.4 463.8 195.15 460.4 196.35C457 197.65 453.35 198.3 449.45 198.3C445.55 198.3 441.9 197.65 438.5 196.35C435.1 195.15 432.1 193.4 429.5 191.1C427 188.9 425 186.25 423.5 183.15C422 180.15 421.25 176.8 421.25 173.1ZM439.7 173.1C439.7 175.7 440.55 177.95 442.25 179.85C443.95 181.75 446.35 182.7 449.45 182.7C452.55 182.7 454.95 181.75 456.65 179.85C458.35 177.95 459.2 175.7 459.2 173.1C459.2 170.5 458.35 168.25 456.65 166.35C454.95 164.45 452.55 163.5 449.45 163.5C446.35 163.5 443.95 164.45 442.25 166.35C440.55 168.25 439.7 170.5 439.7 173.1ZM567.73 135.9C567.63 137.1 567.33 138 566.83 138.6C566.43 139.1 565.58 139.35 564.28 139.35H551.98C549.68 139.35 548.53 138.3 548.53 136.2C548.53 136.1 548.53 136 548.53 135.9L551.08 102.45L499.18 101.4C496.88 101.4 495.73 100.25 495.73 97.95V89.25C495.73 86.95 496.88 85.8 499.18 85.8L568.03 87.3C570.33 87.3 571.48 88.35 571.48 90.45C571.48 90.55 571.48 90.65 571.48 90.75L567.73 135.9ZM493.03 169.95C492.93 169.95 492.83 169.95 492.73 169.95C490.63 169.95 489.58 168.8 489.58 166.5V157.8C489.58 156.5 489.83 155.65 490.33 155.25C490.93 154.75 491.83 154.45 493.03 154.35L516.43 153.6V122.55C516.43 120.25 517.58 119.1 519.88 119.1H532.18C534.48 119.1 535.63 120.25 535.63 122.55V153L574.33 151.65C574.43 151.65 574.53 151.65 574.63 151.65C576.73 151.65 577.78 152.8 577.78 155.1V163.8C577.78 165.1 577.48 166 576.88 166.5C576.38 166.9 575.53 167.15 574.33 167.25L493.03 169.95ZM616.238 94.2C617.638 94.2 618.738 94.6 619.538 95.4C620.438 96.2 621.288 97.4 622.088 99L651.338 154.65C651.838 155.65 652.088 156.45 652.088 157.05C652.088 157.15 652.038 157.35 651.938 157.65C651.938 157.95 651.438 158.4 650.438 159L639.938 164.85C638.938 165.45 638.138 165.75 637.538 165.75C637.338 165.75 637.038 165.7 636.638 165.6C636.238 165.5 635.738 164.9 635.138 163.8L616.238 127.5L597.338 163.8C596.738 164.9 596.238 165.5 595.838 165.6C595.438 165.7 595.138 165.75 594.938 165.75C594.338 165.75 593.538 165.45 592.538 164.85L582.038 159C581.038 158.4 580.488 157.95 580.388 157.65C580.388 157.35 580.388 157.15 580.388 157.05C580.388 156.45 580.638 155.65 581.138 154.65L610.388 99C611.188 97.4 611.988 96.2 612.788 95.4C613.688 94.6 614.838 94.2 616.238 94.2ZM678.788 162.3C678.788 164.6 677.638 165.75 675.338 165.75H663.038C660.738 165.75 659.588 164.6 659.588 162.3V99.75C659.588 97.45 660.738 96.3 663.038 96.3H675.338C677.638 96.3 678.788 97.45 678.788 99.75V162.3Z" fill="black"/>
</svg>
